<svg width="210" height="30" viewBox="0 0 210 30" fill="none" xmlns="http://www.w3.org/2000/svg">
<path d="M6.77363 9.04H12.3416V10.352H8.58163V14.432H8.98163C9.96296 14.432 10.7523 14.544 11.3496 14.768C11.947 14.992 12.395 15.376 12.6936 15.92C12.9923 16.464 13.1416 17.2267 13.1416 18.208C13.1416 19.5413 12.8163 20.5067 12.1656 21.104C11.515 21.7013 10.4856 22 9.07763 22H6.77363V9.04ZM9.09363 20.704C9.66963 20.704 10.1176 20.64 10.4376 20.512C10.7683 20.384 11.0136 20.1387 11.1736 19.776C11.3443 19.4133 11.4296 18.8853 11.4296 18.192C11.4296 17.584 11.355 17.1093 11.2056 16.768C11.067 16.416 10.8216 16.16 10.4696 16C10.1283 15.8293 9.65363 15.744 9.04563 15.744H8.58163V20.704H9.09363ZM14.6799 9.04H16.4879V14.432H16.9999C17.9812 14.432 18.7652 14.544 19.3519 14.768C19.9492 14.992 20.3972 15.376 20.6959 15.92C20.9945 16.464 21.1439 17.2267 21.1439 18.208C21.1439 19.5413 20.8185 20.5067 20.1679 21.104C19.5172 21.7013 18.4879 22 17.0799 22H14.6799V9.04ZM22.4879 9.04H24.2959V22H22.4879V9.04ZM17.0799 20.704C17.6559 20.704 18.1092 20.64 18.4399 20.512C18.7812 20.384 19.0319 20.1387 19.1919 19.776C19.3625 19.4133 19.4479 18.8853 19.4479 18.192C19.4479 17.5947 19.3732 17.12 19.2239 16.768C19.0745 16.416 18.8239 16.16 18.4719 16C18.1305 15.8293 17.6559 15.744 17.0479 15.744H16.4879V20.704H17.0799ZM25.3445 20.656C25.8032 20.6667 26.1605 20.5813 26.4165 20.4C26.6725 20.2187 26.8858 19.792 27.0565 19.12C27.2272 18.448 27.3605 17.3867 27.4565 15.936L27.8885 9.04H33.5845V22H31.7765V10.384H29.4405L29.1365 15.936C29.0512 17.3867 28.9072 18.5387 28.7045 19.392C28.5018 20.2453 28.1712 20.896 27.7125 21.344C27.2538 21.792 26.6032 22.016 25.7605 22.016C25.5792 22.016 25.4405 22.0107 25.3445 22V20.656ZM38.9294 22.144C37.66 22.144 36.748 21.7867 36.1934 21.072C35.6494 20.3467 35.3774 19.3013 35.3774 17.936V13.024C35.3774 11.68 35.6547 10.6613 36.2094 9.968C36.764 9.27467 37.6707 8.928 38.9294 8.928C40.188 8.928 41.0894 9.28 41.6334 9.984C42.188 10.6773 42.4654 11.6907 42.4654 13.024V17.952C42.4654 19.296 42.188 20.3307 41.6334 21.056C41.0787 21.7813 40.1774 22.144 38.9294 22.144ZM38.9294 20.72C39.6014 20.72 40.0547 20.5227 40.2894 20.128C40.524 19.7333 40.6414 19.136 40.6414 18.336V12.656C40.6414 11.8667 40.524 11.2853 40.2894 10.912C40.0547 10.528 39.6014 10.336 38.9294 10.336C38.2467 10.336 37.788 10.528 37.5534 10.912C37.3187 11.2853 37.2014 11.8667 37.2014 12.656V18.336C37.2014 19.136 37.3187 19.7333 37.5534 20.128C37.788 20.5227 38.2467 20.72 38.9294 20.72Z" fill="black"/>
<rect x="62.5" y="8.5" width="84.5769" height="13" rx="5.5" fill="white" stroke="#CDCDCD"/>
<rect x="68.1128" y="12" width="35.657" height="6" rx="3" fill="#68B738"/>
<path d="M169.013 22.144C167.733 22.144 166.831 21.7653 166.309 21.008C165.786 20.24 165.525 19.184 165.525 17.84V13.264C165.525 11.8453 165.781 10.768 166.293 10.032C166.805 9.296 167.711 8.928 169.013 8.928C170.175 8.928 171.007 9.24267 171.509 9.872C172.021 10.5013 172.277 11.4293 172.277 12.656V13.68H170.565V12.768C170.565 12.1707 170.538 11.712 170.485 11.392C170.431 11.072 170.293 10.816 170.069 10.624C169.855 10.432 169.509 10.336 169.029 10.336C168.538 10.336 168.17 10.4427 167.925 10.656C167.69 10.8587 167.535 11.1467 167.461 11.52C167.386 11.8827 167.349 12.3733 167.349 12.992V18.128C167.349 18.7893 167.402 19.3067 167.509 19.68C167.615 20.0533 167.786 20.32 168.021 20.48C168.266 20.64 168.602 20.72 169.029 20.72C169.487 20.72 169.829 20.6187 170.053 20.416C170.277 20.2133 170.415 19.936 170.469 19.584C170.533 19.232 170.565 18.752 170.565 18.144V17.184H172.277V18.144C172.277 19.4347 172.031 20.4267 171.541 21.12C171.061 21.8027 170.218 22.144 169.013 22.144ZM175.423 10.384H173.231V9.04H179.359V10.384H177.231V22H175.423V10.384ZM182.656 9.04H184.4L187.168 22H185.456L184.864 18.736H182.224L181.6 22H179.904L182.656 9.04ZM184.624 17.44L183.536 11.6L182.464 17.44H184.624ZM187.507 20.656C187.966 20.6667 188.323 20.5813 188.579 20.4C188.835 20.2187 189.049 19.792 189.219 19.12C189.39 18.448 189.523 17.3867 189.619 15.936L190.051 9.04H195.747V22H193.939V10.384H191.603L191.299 15.936C191.214 17.3867 191.07 18.5387 190.867 19.392C190.665 20.2453 190.334 20.896 189.875 21.344C189.417 21.792 188.766 22.016 187.923 22.016C187.742 22.016 187.603 22.0107 187.507 22V20.656ZM201.092 22.144C199.823 22.144 198.911 21.7867 198.356 21.072C197.812 20.3467 197.54 19.3013 197.54 17.936V13.024C197.54 11.68 197.818 10.6613 198.372 9.968C198.927 9.27467 199.834 8.928 201.092 8.928C202.351 8.928 203.252 9.28 203.796 9.984C204.351 10.6773 204.628 11.6907 204.628 13.024V17.952C204.628 19.296 204.351 20.3307 203.796 21.056C203.242 21.7813 202.34 22.144 201.092 22.144ZM201.092 20.72C201.764 20.72 202.218 20.5227 202.452 20.128C202.687 19.7333 202.804 19.136 202.804 18.336V12.656C202.804 11.8667 202.687 11.2853 202.452 10.912C202.218 10.528 201.764 10.336 201.092 10.336C200.41 10.336 199.951 10.528 199.716 10.912C199.482 11.2853 199.364 11.8667 199.364 12.656V18.336C199.364 19.136 199.482 19.7333 199.716 20.128C199.951 20.5227 200.41 20.72 201.092 20.72Z" fill="black"/>
</svg>
